{
  "accessors": [
    {
      "bufferView": 2,
      "componentType": 5126,
      "count": 847,
      "max": [
        16.276268005371094,
        30.05738639831543,
        25.99955940246582
      ],
      "min": [
        -16.244171142578125,
        0.0026025404222309589,
        -25.985448837280273
      ],
      "type": "VEC3"
    },
    {
      "bufferView": 2,
      "byteOffset": 10164,
      "componentType": 5126,
      "count": 847,
      "max": [
        0.99998873472213745,
        0.99999427795410156,
        0.99998843669891357
      ],
      "min": [
        -0.99979031085968018,
        -1,
        -0.99976450204849243
      ],
      "type": "VEC3"
    },
    {
      "bufferView": 3,
      "componentType": 5126,
      "count": 847,
      "max": [
        0.99223935604095459,
        0.99914693832397461,
        0.99892544746398926,
        1
      ],
      "min": [
        -0.99998384714126587,
        -0.9918292760848999,
        -0.96605384349822998,
        1
      ],
      "type": "VEC4"
    },
    {
      "bufferView": 1,
      "componentType": 5126,
      "count": 847,
      "max": [
        0.98297488689422607,
        0.98297488689422607
      ],
      "min": [
        0.017025113105773926,
        0.017025083303451538
      ],
      "type": "VEC2"
    },
    {
      "bufferView": 0,
      "componentType": 5125,
      "count": 4818,
      "max": [
        846
      ],
      "min": [
        0
      ],
      "type": "SCALAR"
    },
    {
      "bufferView": 2,
      "byteOffset": 20328,
      "componentType": 5126,
      "count": 56,
      "max": [
        6.4458532333374023,
        25.490505218505859,
        28.659996032714844
      ],
      "min": [
        -6.4458532333374023,
        21.310995101928711,
        24.399791717529297
      ],
      "type": "VEC3"
    },
    {
      "bufferView": 2,
      "byteOffset": 21000,
      "componentType": 5126,
      "count": 56,
      "max": [
        0.98898237943649292,
        0.99748283624649048,
        0.99960190057754517
      ],
      "min": [
        -0.98898237943649292,
        -0.99813938140869141,
        -0.97812044620513916
      ],
      "type": "VEC3"
    },
    {
      "bufferView": 3,
      "byteOffset": 13552,
      "componentType": 5126,
      "count": 56,
      "max": [
        0.99963128566741943,
        0.81231242418289185,
        0.96534991264343262,
        1
      ],
      "min": [
        -0.99793052673339844,
        -0.83482050895690918,
        -0.99060183763504028,
        -1
      ],
      "type": "VEC4"
    },
    {
      "bufferView": 1,
      "byteOffset": 6776,
      "componentType": 5126,
      "count": 56,
      "max": [
        0.96780157089233398,
        0.96751797199249268
      ],
      "min": [
        0.67449307441711426,
        0.82277023792266846
      ],
      "type": "VEC2"
    },
    {
      "bufferView": 0,
      "byteOffset": 19272,
      "componentType": 5125,
      "count": 318,
      "max": [
        55
      ],
      "min": [
        0
      ],
      "type": "SCALAR"
    },
    {
      "bufferView": 2,
      "byteOffset": 21672,
      "componentType": 5126,
      "count": 210,
      "max": [
        5.894188404083252,
        27.522163391113281,
        12.47138786315918
      ],
      "min": [
        2.5594134330749512,
        4.4054775238037109,
        -10.921936988830566
      ],
      "type": "VEC3"
    },
    {
      "bufferView": 2,
      "byteOffset": 24192,
      "componentType": 5126,
      "count": 210,
      "max": [
        0.99999809265136719,
        0.99973618984222412,
        0.99964863061904907
      ],
      "min": [
        -0.99999058246612549,
        -0.99997776746749878,
        -0.99954801797866821
      ],
      "type": "VEC3"
    },
    {
      "bufferView": 3,
      "byteOffset": 14448,
      "componentType": 5126,
      "count": 210,
      "max": [
        0.13643121719360352,
        0.99983125925064087,
        0.9999995231628418,
        1
      ],
      "min": [
        -0.13186641037464142,
        -0.99997895956039429,
        -0.99999964237213135,
        1
      ],
      "type": "VEC4"
    },
    {
      "bufferView": 1,
      "byteOffset": 7224,
      "componentType": 5126,
      "count": 210,
      "max": [
        0.98547238111495972,
        0.95600485801696777
      ],
      "min": [
        0.0074201822280883789,
        0.028574347496032715
      ],
      "type": "VEC2"
    },
    {
      "bufferView": 0,
      "byteOffset": 20544,
      "componentType": 5125,
      "count": 660,
      "max": [
        209
      ],
      "min": [
        0
      ],
      "type": "SCALAR"
    },
    {
      "bufferView": 2,
      "byteOffset": 26712,
      "componentType": 5126,
      "count": 210,
      "max": [
        -4.9158592224121094,
        27.522163391113281,
        12.47138786315918
      ],
      "min": [
        -8.2506341934204102,
        4.4054775238037109,
        -10.921936988830566
      ],
      "type": "VEC3"
    },
    {
      "bufferView": 2,
      "byteOffset": 29232,
      "componentType": 5126,
      "count": 210,
      "max": [
        0.99999809265136719,
        0.99973618984222412,
        0.99964863061904907
      ],
      "min": [
        -0.99999058246612549,
        -0.99997782707214355,
        -0.99954801797866821
      ],
      "type": "VEC3"
    },
    {
      "bufferView": 3,
      "byteOffset": 17808,
      "componentType": 5126,
      "count": 210,
      "max": [
        0.13643112778663635,
        0.99983131885528564,
        0.9999995231628418,
        1
      ],
      "min": [
        -0.13186615705490112,
        -0.99997895956039429,
        -0.99999964237213135,
        1
      ],
      "type": "VEC4"
    },
    {
      "bufferView": 1,
      "byteOffset": 8904,
      "componentType": 5126,
      "count": 210,
      "max": [
        0.98547238111495972,
        0.95600485801696777
      ],
      "min": [
        0.0074201822280883789,
        0.028574347496032715
      ],
      "type": "VEC2"
    },
    {
      "bufferView": 0,
      "byteOffset": 23184,
      "componentType": 5125,
      "count": 660,
      "max": [
        209
      ],
      "min": [
        0
      ],
      "type": "SCALAR"
    },
    {
      "bufferView": 4,
      "componentType": 5126,
      "count": 52,
      "max": [
        5
      ],
      "min": [
        0.041666667908430099
      ],
      "type": "SCALAR"
    },
    {
      "bufferView": 5,
      "componentType": 5126,
      "count": 52,
      "max": [
        2.995108501491206e-18,
        0.67214435338973999,
        1.7347234759768071e-18
      ],
      "min": [
        -2.120970499924768e-18,
        -11.537979125976562,
        -3.4694469519536142e-18
      ],
      "type": "VEC3"
    },
    {
      "bufferView": 4,
      "byteOffset": 208,
      "componentType": 5126,
      "count": 2,
      "max": [
        5
      ],
      "min": [
        0.041666667908430099
      ],
      "type": "SCALAR"
    },
    {
      "bufferView": 5,
      "byteOffset": 624,
      "componentType": 5126,
      "count": 2,
      "max": [
        1,
        1,
        1
      ],
      "min": [
        1,
        1,
        1
      ],
      "type": "VEC3"
    },
    {
      "bufferView": 4,
      "byteOffset": 216,
      "componentType": 5126,
      "count": 37,
      "max": [
        5
      ],
      "min": [
        0.041666667908430099
      ],
      "type": "SCALAR"
    },
    {
      "bufferView": 6,
      "componentType": 5126,
      "count": 37,
      "max": [
        8.6736173798840355e-19,
        2.6020852139652106e-18,
        3.2255014631443757e-18,
        1
      ],
      "min": [
        -5.2041704279304213e-18,
        -2.6020852139652106e-18,
        -3.6862873864507151e-18,
        1
      ],
      "type": "VEC4"
    },
    {
      "bufferView": 4,
      "byteOffset": 364,
      "componentType": 5126,
      "count": 51,
      "max": [
        5
      ],
      "min": [
        0.041666667908430099
      ],
      "type": "SCALAR"
    },
    {
      "bufferView": 5,
      "byteOffset": 648,
      "componentType": 5126,
      "count": 51,
      "max": [
        20.548009872436523,
        75.452171325683594,
        6.1232552528381348
      ],
      "min": [
        -10.032656669616699,
        0,
        -4.5151939392089844
      ],
      "type": "VEC3"
    },
    {
      "bufferView": 4,
      "byteOffset": 568,
      "componentType": 5126,
      "count": 2,
      "max": [
        5
      ],
      "min": [
        0.041666667908430099
      ],
      "type": "SCALAR"
    },
    {
      "bufferView": 5,
      "byteOffset": 1260,
      "componentType": 5126,
      "count": 2,
      "max": [
        1,
        1,
        1
      ],
      "min": [
        1,
        1,
        1
      ],
      "type": "VEC3"
    },
    {
      "bufferView": 4,
      "byteOffset": 576,
      "componentType": 5126,
      "count": 74,
      "max": [
        5
      ],
      "min": [
        0.041666667908430099
      ],
      "type": "SCALAR"
    },
    {
      "bufferView": 6,
      "byteOffset": 592,
      "componentType": 5126,
      "count": 74,
      "max": [
        0.99797403812408447,
        0.46275421977043152,
        0.57790148258209229,
        1
      ],
      "min": [
        -0.50523173809051514,
        -0.45473203063011169,
        -0.57126027345657349,
        -0.46752756834030151
      ],
      "type": "VEC4"
    },
    {
      "bufferView": 4,
      "byteOffset": 872,
      "componentType": 5126,
      "count": 52,
      "max": [
        5
      ],
      "min": [
        0.041666667908430099
      ],
      "type": "SCALAR"
    },
    {
      "bufferView": 5,
      "byteOffset": 1284,
      "componentType": 5126,
      "count": 52,
      "max": [
        9.6957197189331055,
        84.614784240722656,
        6.3950943946838379
      ],
      "min": [
        -20.852632522583008,
        -1.7763568394002505e-15,
        -4.7960109710693359
      ],
      "type": "VEC3"
    },
    {
      "bufferView": 4,
      "byteOffset": 1080,
      "componentType": 5126,
      "count": 2,
      "max": [
        5
      ],
      "min": [
        0.041666667908430099
      ],
      "type": "SCALAR"
    },
    {
      "bufferView": 5,
      "byteOffset": 1908,
      "componentType": 5126,
      "count": 2,
      "max": [
        1,
        1,
        1
      ],
      "min": [
        1,
        1,
        1
      ],
      "type": "VEC3"
    },
    {
      "bufferView": 4,
      "byteOffset": 1088,
      "componentType": 5126,
      "count": 76,
      "max": [
        5
      ],
      "min": [
        0.041666667908430099
      ],
      "type": "SCALAR"
    },
    {
      "bufferView": 6,
      "byteOffset": 1776,
      "componentType": 5126,
      "count": 76,
      "max": [
        0.99854761362075806,
        0.46212369203567505,
        0.57787138223648071,
        1
      ],
      "min": [
        -0.52730810642242432,
        -0.45041722059249878,
        -0.56696540117263794,
        -0.49016743898391724
      ],
      "type": "VEC4"
    },
    {
      "bufferView": 4,
      "byteOffset": 1392,
      "componentType": 5126,
      "count": 2,
      "max": [
        4.9166665077209473
      ],
      "min": [
        1.4166666269302368
      ],
      "type": "SCALAR"
    },
    {
      "bufferView": 5,
      "byteOffset": 1932,
      "componentType": 5126,
      "count": 2,
      "max": [
        0,
        0,
        0
      ],
      "min": [
        0,
        0,
        0
      ],
      "type": "VEC3"
    },
    {
      "bufferView": 4,
      "byteOffset": 1400,
      "componentType": 5126,
      "count": 2,
      "max": [
        4.9166665077209473
      ],
      "min": [
        1.4166666269302368
      ],
      "type": "SCALAR"
    },
    {
      "bufferView": 5,
      "byteOffset": 1956,
      "componentType": 5126,
      "count": 2,
      "max": [
        1,
        1,
        1
      ],
      "min": [
        1,
        1,
        1
      ],
      "type": "VEC3"
    },
    {
      "bufferView": 4,
      "byteOffset": 1408,
      "componentType": 5126,
      "count": 47,
      "max": [
        4.9166665077209473
      ],
      "min": [
        1.4166666269302368
      ],
      "type": "SCALAR"
    },
    {
      "bufferView": 6,
      "byteOffset": 2992,
      "componentType": 5126,
      "count": 47,
      "max": [
        0.0013314377283677459,
        0.0067215529270470142,
        0.014715759083628654,
        1
      ],
      "min": [
        -0.01731664314866066,
        0,
        -0.0099999355152249336,
        0.9997786283493042
      ],
      "type": "VEC4"
    }
  ],
  "animations": [
    {
      "channels": [
        {
          "sampler": 0,
          "target": {
            "node": 7,
            "path": "translation"
          }
        },
        {
          "sampler": 1,
          "target": {
            "node": 7,
            "path": "scale"
          }
        },
        {
          "sampler": 2,
          "target": {
            "node": 7,
            "path": "rotation"
          }
        },
        {
          "sampler": 3,
          "target": {
            "node": 9,
            "path": "translation"
          }
        },
        {
          "sampler": 4,
          "target": {
            "node": 9,
            "path": "scale"
          }
        },
        {
          "sampler": 5,
          "target": {
            "node": 9,
            "path": "rotation"
          }
        },
        {
          "sampler": 6,
          "target": {
            "node": 11,
            "path": "translation"
          }
        },
        {
          "sampler": 7,
          "target": {
            "node": 11,
            "path": "scale"
          }
        },
        {
          "sampler": 8,
          "target": {
            "node": 11,
            "path": "rotation"
          }
        },
        {
          "sampler": 9,
          "target": {
            "node": 5,
            "path": "translation"
          }
        },
        {
          "sampler": 10,
          "target": {
            "node": 5,
            "path": "scale"
          }
        },
        {
          "sampler": 11,
          "target": {
            "node": 5,
            "path": "rotation"
          }
        }
      ],
      "name": "Take 001",
      "samplers": [
        {
          "input": 20,
          "interpolation": "LINEAR",
          "output": 21
        },
        {
          "input": 22,
          "interpolation": "LINEAR",
          "output": 23
        },
        {
          "input": 24,
          "interpolation": "LINEAR",
          "output": 25
        },
        {
          "input": 26,
          "interpolation": "LINEAR",
          "output": 27
        },
        {
          "input": 28,
          "interpolation": "LINEAR",
          "output": 29
        },
        {
          "input": 30,
          "interpolation": "LINEAR",
          "output": 31
        },
        {
          "input": 32,
          "interpolation": "LINEAR",
          "output": 33
        },
        {
          "input": 34,
          "interpolation": "LINEAR",
          "output": 35
        },
        {
          "input": 36,
          "interpolation": "LINEAR",
          "output": 37
        },
        {
          "input": 38,
          "interpolation": "LINEAR",
          "output": 39
        },
        {
          "input": 40,
          "interpolation": "LINEAR",
          "output": 41
        },
        {
          "input": 42,
          "interpolation": "LINEAR",
          "output": 43
        }
      ]
    }
  ],
  "asset": {
    "extras": {
      "author": "Damco (https://sketchfab.com/jondameron5)",
      "license": "CC-BY-4.0 (http://creativecommons.org/licenses/by/4.0/)",
      "source": "https://sketchfab.com/models/016f56f0c44a4cc88f4b764a5a83e326",
      "title": "Cartoony Animated Toaster"
    },
    "generator": "Sketchfab-3.18.7",
    "version": "2.0"
  },
  "bufferViews": [
    {
      "buffer": 0,
      "byteLength": 25824,
      "byteOffset": 0,
      "name": "floatBufferViews",
      "target": 34963
    },
    {
      "buffer": 0,
      "byteLength": 10584,
      "byteOffset": 25824,
      "byteStride": 8,
      "name": "floatBufferViews",
      "target": 34962
    },
    {
      "buffer": 0,
      "byteLength": 31752,
      "byteOffset": 36408,
      "byteStride": 12,
      "name": "floatBufferViews",
      "target": 34962
    },
    {
      "buffer": 0,
      "byteLength": 21168,
      "byteOffset": 68160,
      "byteStride": 16,
      "name": "floatBufferViews",
      "target": 34962
    },
    {
      "buffer": 0,
      "byteLength": 1596,
      "byteOffset": 89328,
      "name": "floatBufferViews"
    },
    {
      "buffer": 0,
      "byteLength": 1980,
      "byteOffset": 90924,
      "byteStride": 12,
      "name": "floatBufferViews"
    },
    {
      "buffer": 0,
      "byteLength": 3744,
      "byteOffset": 92904,
      "byteStride": 16,
      "name": "floatBufferViews"
    }
  ],
  "buffers": [
    {
      "byteLength": 96648,
      "uri": "scene.bin"
    }
  ],
  "extensionsUsed": [
    "KHR_materials_unlit"
  ],
  "images": [
    {
      "uri": "lambert3_baseColor.png"
    },
    {
      "uri": "toasterMat_baseColor.png"
    }
  ],
  "materials": [
    {
      "doubleSided": true,
      "emissiveFactor": [
        0,
        0,
        0
      ],
      "extensions": {
        "KHR_materials_unlit": {}
      },
      "name": "toasterMat",
      "pbrMetallicRoughness": {
        "baseColorFactor": [
          1,
          1,
          1,
          1
        ],
        "baseColorTexture": {
          "index": 1,
          "texCoord": 0
        },
        "metallicFactor": 0,
        "roughnessFactor": 1
      }
    },
    {
      "doubleSided": true,
      "extensions": {
        "KHR_materials_unlit": {}
      },
      "name": "lambert3",
      "pbrMetallicRoughness": {
        "baseColorFactor": [
          1,
          1,
          1,
          1
        ],
        "baseColorTexture": {
          "index": 0,
          "texCoord": 0
        },
        "metallicFactor": 0,
        "roughnessFactor": 1
      }
    }
  ],
  "meshes": [
    {
      "name": "toaster_toasterMat_0",
      "primitives": [
        {
          "attributes": {
            "NORMAL": 1,
            "POSITION": 0,
            "TANGENT": 2,
            "TEXCOORD_0": 3
          },
          "indices": 4,
          "material": 0,
          "mode": 4
        }
      ]
    },
    {
      "name": "handle_toasterMat_0",
      "primitives": [
        {
          "attributes": {
            "NORMAL": 6,
            "POSITION": 5,
            "TANGENT": 7,
            "TEXCOORD_0": 8
          },
          "indices": 9,
          "material": 0,
          "mode": 4
        }
      ]
    },
    {
      "name": "toast02_lambert3_0",
      "primitives": [
        {
          "attributes": {
            "NORMAL": 11,
            "POSITION": 10,
            "TANGENT": 12,
            "TEXCOORD_0": 13
          },
          "indices": 14,
          "material": 1,
          "mode": 4
        }
      ]
    },
    {
      "name": "toast01_lambert3_0",
      "primitives": [
        {
          "attributes": {
            "NORMAL": 16,
            "POSITION": 15,
            "TANGENT": 17,
            "TEXCOORD_0": 18
          },
          "indices": 19,
          "material": 1,
          "mode": 4
        }
      ]
    }
  ],
  "nodes": [
    {
      "children": [
        1
      ],
      "name": "RootNode (gltf orientation matrix)",
      "rotation": [
        -0.70710678118654746,
        -0,
        -0,
        0.70710678118654757
      ]
    },
    {
      "children": [
        2
      ],
      "name": "RootNode (model correction matrix)"
    },
    {
      "children": [
        3
      ],
      "matrix": [
        1,
        0,
        0,
        0,
        0,
        0,
        1,
        0,
        0,
        -1,
        0,
        0,
        0,
        0,
        0,
        1
      ],
      "name": "0bafe1272ed34d579b9879893537fda1.fbx"
    },
    {
      "children": [
        4
      ],
      "name": ""
    },
    {
      "children": [
        5
      ],
      "name": "RootNode"
    },
    {
      "children": [
        6,
        7,
        9,
        11
      ],
      "name": "toaster"
    },
    {
      "mesh": 0,
      "name": "toaster_toasterMat_0"
    },
    {
      "children": [
        8
      ],
      "name": "handle",
      "translation": [
        0,
        -1.2356874942779541,
        0
      ]
    },
    {
      "mesh": 1,
      "name": "handle_toasterMat_0"
    },
    {
      "children": [
        10
      ],
      "name": "toast02",
      "rotation": [
        -1.4997597572211942e-32,
        -1.2246468525851679e-16,
        -1.2246468525851679e-16,
        1
      ],
      "translation": [
        -3.5527136788005009e-15,
        1.7763568394002505e-15,
        -1.3322676295501878e-15
      ]
    },
    {
      "mesh": 2,
      "name": "toast02_lambert3_0"
    },
    {
      "children": [
        12
      ],
      "name": "toast01",
      "rotation": [
        -1.4997597572211942e-32,
        -1.2246468525851679e-16,
        -1.2246468525851679e-16,
        1
      ],
      "translation": [
        -3.5527136788005009e-15,
        -1.7763568394002505e-15,
        1.3322676295501878e-15
      ]
    },
    {
      "mesh": 3,
      "name": "toast01_lambert3_0"
    }
  ],
  "samplers": [
    {
      "magFilter": 9729,
      "minFilter": 9987,
      "wrapS": 10497,
      "wrapT": 10497
    }
  ],
  "scene": 0,
  "scenes": [
    {
      "name": "OSG_Scene",
      "nodes": [
        0
      ]
    }
  ],
  "textures": [
    {
      "sampler": 0,
      "source": 0
    },
    {
      "sampler": 0,
      "source": 1
    }
  ]
}

